<svg xmlns="http://www.w3.org/2000/svg" width="232.5" height="285.987" viewBox="0 0 232.5 285.987"><g transform="translate(-187 -229.651)"><g transform="translate(226.38 297.203)" fill="none" stroke="#707070" stroke-width="1"><ellipse cx="41.332" cy="39.838" rx="41.332" ry="39.838" stroke="none"/><ellipse cx="41.332" cy="39.838" rx="40.832" ry="39.338" fill="none"/></g><text transform="translate(260.775 333.102)" font-size="11" font-family="HelveticaNeue-Light, Helvetica Neue" font-weight="300"><tspan x="-12.325" y="0">email</tspan><tspan x="-23.226" y="13">password</tspan></text><g transform="translate(299.009 362.935)" fill="none" stroke="#707070" stroke-width="1"><ellipse cx="41.332" cy="39.838" rx="41.332" ry="39.838" stroke="none"/><ellipse cx="41.332" cy="39.838" rx="40.832" ry="39.338" fill="none"/></g><text transform="translate(338.73 398.834)" font-size="11" font-family="HelveticaNeue-Light, Helvetica Neue" font-weight="300"><tspan x="-29.441" y="0">social media</tspan><tspan x="-25.872" y="13">passwords</tspan></text><g transform="translate(219.408 393.81)" fill="none" stroke="#707070" stroke-width="1"><ellipse cx="41.332" cy="39.838" rx="41.332" ry="39.838" stroke="none"/><ellipse cx="41.332" cy="39.838" rx="40.832" ry="39.338" fill="none"/></g><text transform="translate(254.489 429.708)" font-size="11" font-family="HelveticaNeue-Light, Helvetica Neue" font-weight="300"><tspan x="-22.82" y="0">computer</tspan><tspan x="-23.226" y="13">password</tspan></text><g transform="translate(307.791 272.305)" fill="none" stroke="#707070" stroke-width="1"><ellipse cx="41.332" cy="39.838" rx="41.332" ry="39.838" stroke="none"/><ellipse cx="41.332" cy="39.838" rx="40.832" ry="39.338" fill="none"/></g><text transform="translate(349.959 308.203)" font-size="11" font-family="HelveticaNeue-Light, Helvetica Neue" font-weight="300"><tspan x="-14.977" y="0">phone</tspan><tspan x="-7.128" y="13">pin</tspan></text><g transform="translate(419.5 229.651) rotate(90)" fill="none" stroke="#707070" stroke-width="1"><ellipse cx="142.994" cy="116.25" rx="142.994" ry="116.25" stroke="none"/><ellipse cx="142.994" cy="116.25" rx="142.494" ry="115.75" fill="none"/></g></g></svg>